<?xml version="1.0" standalone="no"?>
<!DOCTYPE svg PUBLIC "-//W3C//DTD SVG 20010904//EN"
 "http://www.w3.org/TR/2001/REC-SVG-20010904/DTD/svg10.dtd">
<svg version="1.0" xmlns="http://www.w3.org/2000/svg"
 width="1013.000000pt" height="1280.000000pt" viewBox="0 0 1013.000000 1280.000000"
 preserveAspectRatio="xMidYMid meet">
<metadata>
Created by potrace 1.15, written by Peter Selinger 2001-2017
</metadata>
<g transform="translate(0.000000,1280.000000) scale(0.100000,-0.100000)"
fill="#607d8b" stroke="none">
<path d="M5960 12309 c-740 -159 -2335 -501 -3545 -760 -1210 -259 -2203 -473
-2206 -475 -4 -2 -1 -32 7 -66 16 -73 450 -2107 525 -2458 27 -129 54 -253 59
-275 5 -22 59 -274 120 -560 61 -286 199 -929 306 -1430 107 -500 199 -930
204 -955 5 -25 32 -151 60 -280 28 -129 66 -307 85 -395 57 -272 404 -1896
420 -1965 8 -36 114 -528 235 -1094 121 -566 222 -1031 224 -1034 3 -2 90 12
194 32 197 38 220 41 187 25 -62 -29 195 20 895 171 74 16 200 43 280 60 80
17 183 40 230 50 47 11 141 31 210 46 69 14 188 39 265 56 353 75 423 90 460
98 37 7 119 25 300 65 39 9 102 22 140 30 67 14 236 50 445 95 52 11 147 32
210 45 63 13 189 40 280 60 91 19 217 46 280 60 63 13 158 33 210 45 52 12
147 32 210 45 63 13 180 38 260 55 80 17 206 44 280 60 202 43 447 95 610 130
154 34 351 75 515 110 55 11 138 29 185 40 47 10 128 28 180 40 125 28 195 51
181 60 -7 3 14 12 46 19 32 8 61 15 64 17 8 4 3 29 -135 669 -25 116 -149 694
-275 1285 -126 591 -354 1656 -506 2365 -152 710 -305 1427 -341 1595 -35 168
-75 355 -89 415 -13 61 -67 310 -119 555 -310 1451 -712 3319 -744 3464 -22
94 -43 171 -48 172 -5 1 -614 -128 -1354 -287z m3477 -10275 c-3 -3 -12 -4
-19 -1 -8 3 -5 6 6 6 11 1 17 -2 13 -5z m-900 -190 c-3 -3 -12 -4 -19 -1 -8 3
-5 6 6 6 11 1 17 -2 13 -5z m-90 -20 c-3 -3 -12 -4 -19 -1 -8 3 -5 6 6 6 11 1
17 -2 13 -5z m-40 -10 c-3 -3 -12 -4 -19 -1 -8 3 -5 6 6 6 11 1 17 -2 13 -5z
m-150 -30 c-3 -3 -12 -4 -19 -1 -8 3 -5 6 6 6 11 1 17 -2 13 -5z m-130 -30
c-3 -3 -12 -4 -19 -1 -8 3 -5 6 6 6 11 1 17 -2 13 -5z m-150 -30 c-3 -3 -12
-4 -19 -1 -8 3 -5 6 6 6 11 1 17 -2 13 -5z m-280 -60 c-3 -3 -12 -4 -19 -1 -8
3 -5 6 6 6 11 1 17 -2 13 -5z m-280 -60 c-3 -3 -12 -4 -19 -1 -8 3 -5 6 6 6
11 1 17 -2 13 -5z m-280 -60 c-3 -3 -12 -4 -19 -1 -8 3 -5 6 6 6 11 1 17 -2
13 -5z m-280 -60 c-3 -3 -12 -4 -19 -1 -8 3 -5 6 6 6 11 1 17 -2 13 -5z
m-1870 -400 c-3 -3 -12 -4 -19 -1 -8 3 -5 6 6 6 11 1 17 -2 13 -5z m-90 -20
c-3 -3 -12 -4 -19 -1 -8 3 -5 6 6 6 11 1 17 -2 13 -5z m-40 -10 c-3 -3 -12 -4
-19 -1 -8 3 -5 6 6 6 11 1 17 -2 13 -5z m-150 -30 c-3 -3 -12 -4 -19 -1 -8 3
-5 6 6 6 11 1 17 -2 13 -5z m-130 -30 c-3 -3 -12 -4 -19 -1 -8 3 -5 6 6 6 11
1 17 -2 13 -5z m-150 -30 c-3 -3 -12 -4 -19 -1 -8 3 -5 6 6 6 11 1 17 -2 13
-5z m-280 -60 c-3 -3 -12 -4 -19 -1 -8 3 -5 6 6 6 11 1 17 -2 13 -5z m-370
-80 c-3 -3 -12 -4 -19 -1 -8 3 -5 6 6 6 11 1 17 -2 13 -5z m-190 -40 c-3 -3
-12 -4 -19 -1 -8 3 -5 6 6 6 11 1 17 -2 13 -5z m-90 -20 c-3 -3 -12 -4 -19 -1
-8 3 -5 6 6 6 11 1 17 -2 13 -5z m-190 -40 c-3 -3 -12 -4 -19 -1 -8 3 -5 6 6
6 11 1 17 -2 13 -5z m-410 -90 c-3 -3 -12 -4 -19 -1 -8 3 -5 6 6 6 11 1 17 -2
13 -5z"/>
</g>
</svg>
