<?xml version="1.0" standalone="no"?>
<!DOCTYPE svg PUBLIC "-//W3C//DTD SVG 20010904//EN"
 "http://www.w3.org/TR/2001/REC-SVG-20010904/DTD/svg10.dtd">
<svg version="1.0" xmlns="http://www.w3.org/2000/svg"
 width="1280.000000pt" height="650.000000pt" viewBox="0 0 1280.000000 650.000000"
 preserveAspectRatio="xMidYMid meet">
<metadata>
Created by potrace 1.15, written by Peter Selinger 2001-2017
</metadata>
<g transform="translate(0.000000,650.000000) scale(0.100000,-0.100000)"
fill="#607d8b" stroke="none">
<path d="M5770 6494 c-371 -32 -617 -80 -900 -176 -160 -54 -169 -58 -785
-330 -1453 -642 -1945 -890 -2513 -1265 -478 -316 -746 -555 -918 -818 -53
-80 -65 -108 -108 -258 -46 -159 -49 -174 -43 -251 3 -45 11 -103 18 -129 l11
-47 -145 -298 c-206 -421 -322 -723 -368 -963 -11 -59 -19 -132 -17 -162 l3
-55 305 -266 305 -266 96 0 c53 0 154 -5 225 -10 333 -26 497 -88 859 -322 98
-63 175 -101 284 -137 175 -59 209 -62 791 -71 808 -12 1061 -36 1590 -149
111 -23 537 -47 665 -36 44 3 226 22 405 41 474 51 691 48 986 -11 198 -40
364 -101 823 -305 321 -142 434 -173 726 -201 292 -28 1170 16 1410 70 139 31
343 102 639 223 519 211 573 225 1055 273 630 64 732 87 926 213 186 120 440
345 561 496 130 162 163 271 130 434 -45 221 -158 397 -429 666 -171 170 -195
203 -58 83 40 -36 97 -78 125 -92 66 -36 42 -10 -55 59 -41 29 -90 74 -111
101 -51 68 -109 191 -153 325 -74 228 -144 379 -223 483 -68 89 -550 415
-1057 714 -242 143 -462 272 -490 286 -111 55 -244 89 -505 127 -334 50 -478
87 -603 159 -94 53 -237 184 -495 450 l-253 261 -489 362 c-269 200 -531 387
-582 417 -448 260 -837 367 -1373 375 -121 2 -240 2 -265 0z"/>
</g>
</svg>
